<svg width="283" height="261" viewBox="0 0 283 261" fill="none" xmlns="http://www.w3.org/2000/svg">
<g filter="url(#filter0_b_102_16)">
<g filter="url(#filter1_i_102_16)">
<path d="M250.326 139.629C251.049 135.524 251.426 131.302 251.426 126.993C251.426 86.6802 218.441 54 177.752 54C147.503 54 121.512 72.0613 110.166 97.8927C100.974 90.03 89.0468 85.2828 76.0124 85.2828C46.949 85.2828 23.3884 108.885 23.3884 138C23.3884 139.621 23.4615 141.225 23.6045 142.809C9.6255 149.593 0 163.828 0 180.29C0 203.326 18.8485 222 42.0992 222H240.901C264.152 222 283 203.326 283 180.29C283 160.464 269.039 143.869 250.326 139.629Z" fill="url(#paint0_linear_102_16)"/>
</g>
</g>
<g filter="url(#filter2_b_102_16)">
<g filter="url(#filter3_i_102_16)">
<path d="M201.68 209.253C202.129 206.701 202.364 204.075 202.364 201.395C202.364 176.324 181.85 156 156.545 156C137.734 156 121.57 167.232 114.513 183.297C108.797 178.407 101.379 175.455 93.2727 175.455C75.198 175.455 60.5455 190.133 60.5455 208.24C60.5455 209.249 60.5909 210.246 60.6798 211.231C51.9862 215.45 46 224.303 46 234.541C46 248.867 57.722 260.481 72.1818 260.481H195.818C210.278 260.481 222 248.867 222 234.541C222 222.211 213.317 211.89 201.68 209.253Z" fill="url(#paint1_linear_102_16)"/>
</g>
</g>
<g filter="url(#filter4_di_102_16)">
<path d="M201.765 18.3823C191.249 23.0521 187.144 26.9984 183.382 36.7646C180.386 27.3001 176.702 23.0785 165 18.3823C177.038 14.4602 180.305 9.9199 183.382 1.14382e-05C187.164 9.14263 189.499 14.1323 201.765 18.3823Z" fill="url(#paint2_linear_102_16)"/>
</g>
<g filter="url(#filter5_di_102_16)">
<path d="M100.765 55.3823C90.2487 60.0521 86.1443 63.9984 82.3823 73.7646C79.3863 64.3001 75.7023 60.0785 64 55.3823C76.0381 51.4602 79.3052 46.9199 82.3823 37C86.1636 46.1426 88.499 51.1323 100.765 55.3823Z" fill="url(#paint3_linear_102_16)"/>
</g>
<g filter="url(#filter6_di_102_16)">
<path d="M263.765 156.382C253.249 161.052 249.144 164.998 245.382 174.765C242.386 165.3 238.702 161.078 227 156.382C239.038 152.46 242.305 147.92 245.382 138C249.164 147.143 251.499 152.132 263.765 156.382Z" fill="url(#paint4_linear_102_16)"/>
</g>
<defs>
<filter id="filter0_b_102_16" x="-27" y="27" width="337" height="222" filterUnits="userSpaceOnUse" color-interpolation-filters="sRGB">
<feFlood flood-opacity="0" result="BackgroundImageFix"/>
<feGaussianBlur in="BackgroundImageFix" stdDeviation="13.5"/>
<feComposite in2="SourceAlpha" operator="in" result="effect1_backgroundBlur_102_16"/>
<feBlend mode="normal" in="SourceGraphic" in2="effect1_backgroundBlur_102_16" result="shape"/>
</filter>
<filter id="filter1_i_102_16" x="0" y="54" width="283" height="178" filterUnits="userSpaceOnUse" color-interpolation-filters="sRGB">
<feFlood flood-opacity="0" result="BackgroundImageFix"/>
<feBlend mode="normal" in="SourceGraphic" in2="BackgroundImageFix" result="shape"/>
<feColorMatrix in="SourceAlpha" type="matrix" values="0 0 0 0 0 0 0 0 0 0 0 0 0 0 0 0 0 0 127 0" result="hardAlpha"/>
<feOffset dy="11"/>
<feGaussianBlur stdDeviation="5"/>
<feComposite in2="hardAlpha" operator="arithmetic" k2="-1" k3="1"/>
<feColorMatrix type="matrix" values="0 0 0 0 1 0 0 0 0 1 0 0 0 0 1 0 0 0 1 0"/>
<feBlend mode="normal" in2="shape" result="effect1_innerShadow_102_16"/>
</filter>
<filter id="filter2_b_102_16" x="19" y="129" width="230" height="158.481" filterUnits="userSpaceOnUse" color-interpolation-filters="sRGB">
<feFlood flood-opacity="0" result="BackgroundImageFix"/>
<feGaussianBlur in="BackgroundImageFix" stdDeviation="13.5"/>
<feComposite in2="SourceAlpha" operator="in" result="effect1_backgroundBlur_102_16"/>
<feBlend mode="normal" in="SourceGraphic" in2="effect1_backgroundBlur_102_16" result="shape"/>
</filter>
<filter id="filter3_i_102_16" x="46" y="156" width="176" height="114.481" filterUnits="userSpaceOnUse" color-interpolation-filters="sRGB">
<feFlood flood-opacity="0" result="BackgroundImageFix"/>
<feBlend mode="normal" in="SourceGraphic" in2="BackgroundImageFix" result="shape"/>
<feColorMatrix in="SourceAlpha" type="matrix" values="0 0 0 0 0 0 0 0 0 0 0 0 0 0 0 0 0 0 127 0" result="hardAlpha"/>
<feOffset dy="11"/>
<feGaussianBlur stdDeviation="5"/>
<feComposite in2="hardAlpha" operator="arithmetic" k2="-1" k3="1"/>
<feColorMatrix type="matrix" values="0 0 0 0 1 0 0 0 0 1 0 0 0 0 1 0 0 0 1 0"/>
<feBlend mode="normal" in2="shape" result="effect1_innerShadow_102_16"/>
</filter>
<filter id="filter4_di_102_16" x="156.233" y="0" width="54.2995" height="56.5321" filterUnits="userSpaceOnUse" color-interpolation-filters="sRGB">
<feFlood flood-opacity="0" result="BackgroundImageFix"/>
<feColorMatrix in="SourceAlpha" type="matrix" values="0 0 0 0 0 0 0 0 0 0 0 0 0 0 0 0 0 0 127 0" result="hardAlpha"/>
<feOffset dy="11"/>
<feGaussianBlur stdDeviation="4.38372"/>
<feColorMatrix type="matrix" values="0 0 0 0 0.285052 0 0 0 0 0.179688 0 0 0 0 0.9375 0 0 0 1 0"/>
<feBlend mode="normal" in2="BackgroundImageFix" result="effect1_dropShadow_102_16"/>
<feBlend mode="normal" in="SourceGraphic" in2="effect1_dropShadow_102_16" result="shape"/>
<feColorMatrix in="SourceAlpha" type="matrix" values="0 0 0 0 0 0 0 0 0 0 0 0 0 0 0 0 0 0 127 0" result="hardAlpha"/>
<feOffset dy="4"/>
<feGaussianBlur stdDeviation="2"/>
<feComposite in2="hardAlpha" operator="arithmetic" k2="-1" k3="1"/>
<feColorMatrix type="matrix" values="0 0 0 0 1 0 0 0 0 1 0 0 0 0 1 0 0 0 0.44 0"/>
<feBlend mode="normal" in2="shape" result="effect2_innerShadow_102_16"/>
</filter>
<filter id="filter5_di_102_16" x="55.2326" y="37" width="54.2995" height="56.5321" filterUnits="userSpaceOnUse" color-interpolation-filters="sRGB">
<feFlood flood-opacity="0" result="BackgroundImageFix"/>
<feColorMatrix in="SourceAlpha" type="matrix" values="0 0 0 0 0 0 0 0 0 0 0 0 0 0 0 0 0 0 127 0" result="hardAlpha"/>
<feOffset dy="11"/>
<feGaussianBlur stdDeviation="4.38372"/>
<feColorMatrix type="matrix" values="0 0 0 0 0.285052 0 0 0 0 0.179688 0 0 0 0 0.9375 0 0 0 0.28 0"/>
<feBlend mode="normal" in2="BackgroundImageFix" result="effect1_dropShadow_102_16"/>
<feBlend mode="normal" in="SourceGraphic" in2="effect1_dropShadow_102_16" result="shape"/>
<feColorMatrix in="SourceAlpha" type="matrix" values="0 0 0 0 0 0 0 0 0 0 0 0 0 0 0 0 0 0 127 0" result="hardAlpha"/>
<feOffset dy="4"/>
<feGaussianBlur stdDeviation="2"/>
<feComposite in2="hardAlpha" operator="arithmetic" k2="-1" k3="1"/>
<feColorMatrix type="matrix" values="0 0 0 0 1 0 0 0 0 1 0 0 0 0 1 0 0 0 0.44 0"/>
<feBlend mode="normal" in2="shape" result="effect2_innerShadow_102_16"/>
</filter>
<filter id="filter6_di_102_16" x="218.233" y="138" width="54.2995" height="56.5321" filterUnits="userSpaceOnUse" color-interpolation-filters="sRGB">
<feFlood flood-opacity="0" result="BackgroundImageFix"/>
<feColorMatrix in="SourceAlpha" type="matrix" values="0 0 0 0 0 0 0 0 0 0 0 0 0 0 0 0 0 0 127 0" result="hardAlpha"/>
<feOffset dy="11"/>
<feGaussianBlur stdDeviation="4.38372"/>
<feColorMatrix type="matrix" values="0 0 0 0 0.285052 0 0 0 0 0.179688 0 0 0 0 0.9375 0 0 0 0.8 0"/>
<feBlend mode="normal" in2="BackgroundImageFix" result="effect1_dropShadow_102_16"/>
<feBlend mode="normal" in="SourceGraphic" in2="effect1_dropShadow_102_16" result="shape"/>
<feColorMatrix in="SourceAlpha" type="matrix" values="0 0 0 0 0 0 0 0 0 0 0 0 0 0 0 0 0 0 127 0" result="hardAlpha"/>
<feOffset dy="4"/>
<feGaussianBlur stdDeviation="2"/>
<feComposite in2="hardAlpha" operator="arithmetic" k2="-1" k3="1"/>
<feColorMatrix type="matrix" values="0 0 0 0 1 0 0 0 0 1 0 0 0 0 1 0 0 0 0.44 0"/>
<feBlend mode="normal" in2="shape" result="effect2_innerShadow_102_16"/>
</filter>
<linearGradient id="paint0_linear_102_16" x1="18" y1="207" x2="303.5" y2="-6.5" gradientUnits="userSpaceOnUse">
<stop stop-color="white"/>
<stop offset="1" stop-color="white" stop-opacity="0.58"/>
</linearGradient>
<linearGradient id="paint1_linear_102_16" x1="57.1943" y1="251.152" x2="234.749" y2="118.375" gradientUnits="userSpaceOnUse">
<stop stop-color="white"/>
<stop offset="1" stop-color="white" stop-opacity="0.58"/>
</linearGradient>
<linearGradient id="paint2_linear_102_16" x1="178.064" y1="38.4872" x2="195.366" y2="6.0026" gradientUnits="userSpaceOnUse">
<stop stop-color="#FF9900"/>
<stop offset="1" stop-color="#FFEE94"/>
</linearGradient>
<linearGradient id="paint3_linear_102_16" x1="77.0645" y1="75.4872" x2="94.366" y2="43.0026" gradientUnits="userSpaceOnUse">
<stop stop-color="#FF9900"/>
<stop offset="1" stop-color="#FFEE94"/>
</linearGradient>
<linearGradient id="paint4_linear_102_16" x1="240.064" y1="176.487" x2="257.366" y2="144.003" gradientUnits="userSpaceOnUse">
<stop stop-color="#FF9900"/>
<stop offset="1" stop-color="#FFEE94"/>
</linearGradient>
</defs>
</svg>
